<?xml version="1.0" standalone="no"?>
<!DOCTYPE svg PUBLIC "-//W3C//DTD SVG 20010904//EN"
 "http://www.w3.org/TR/2001/REC-SVG-20010904/DTD/svg10.dtd">
<svg version="1.0" xmlns="http://www.w3.org/2000/svg"
 width="500.000000pt" height="500.000000pt" viewBox="0 0 500.000000 500.000000"
 preserveAspectRatio="xMidYMid meet">

<g transform="translate(0.000000,500.000000) scale(0.100000,-0.100000)"
fill="#000000" stroke="none">
<path d="M2832 3645 c-85 -24 -162 -66 -224 -124 l-58 -53 0 81 0 81 -328 0
-328 0 -10 -69 c-20 -125 -100 -255 -198 -322 l-36 -24 0 -582 0 -583 450 0
450 0 0 21 c0 16 4 19 18 14 58 -24 160 -46 245 -54 105 -10 281 2 304 21 7 6
13 25 13 42 0 17 10 51 21 76 46 101 138 160 251 160 l66 0 14 38 c8 22 13 81
13 147 0 100 -2 115 -28 167 -19 39 -54 81 -109 133 -65 62 -101 85 -187 126
-350 166 -377 186 -368 266 9 84 73 127 187 126 81 -1 198 -34 276 -79 33 -19
43 -22 52 -12 24 31 133 262 128 274 -8 20 -161 90 -251 114 -105 29 -289 36
-363 15z m-369 -362 c-15 -72 -8 -184 15 -235 l21 -48 -250 0 -249 0 0 153 c0
85 3 157 7 160 3 4 109 7 235 7 l229 0 -8 -37z m129 -396 c57 -56 89 -76 251
-156 147 -73 193 -101 226 -136 34 -37 41 -51 41 -86 0 -98 -75 -151 -215
-153 -63 -1 -93 4 -140 23 -76 31 -156 75 -217 118 l-47 34 -49 -83 -49 -83
-194 0 -194 0 0 160 0 160 264 3 263 2 -4 130 c-2 72 -3 130 -2 130 1 0 31
-29 66 -63z"/>
</g>
</svg>
